<?xml version="1.0" encoding="utf-8"?>
<svg viewBox="39.604 179.142 383.821 129.108" xmlns="http://www.w3.org/2000/svg">
  <path fill="#CF000F" d="M 421.398 275.642 C 420.048 276.993 418.42 277.668 416.516 277.668 C 414.613 277.668 412.986 276.993 411.636 275.642 C 410.284 274.291 409.609 272.664 409.609 270.761 C 409.609 268.856 410.253 267.229 411.543 265.879 C 412.895 264.527 414.551 263.852 416.516 263.852 C 418.42 263.852 420.048 264.527 421.398 265.879 C 422.749 267.229 423.425 268.856 423.425 270.761 C 423.425 272.664 422.749 274.291 421.398 275.642 Z" style=""/>
  <path d="M 67.60240009155274 276.6176919433594 Q 61.155400091552735 276.6176919433594 55.99780009155273 274.3612419433594 Q 50.84020009155273 272.1047919433594 47.893000091552736 267.9602919433594 Q 44.945800091552734 263.8157919433594 44.945800091552734 258.2897919433594 L 56.18200009155274 258.2897919433594 Q 56.55040009155273 262.43429194335937 59.45155009155273 265.1051919433594 Q 62.352700091552734 267.77609194335935 67.60240009155274 267.77609194335935 Q 73.03630009155273 267.77609194335935 76.07560009155273 265.15124194335937 Q 79.11490009155273 262.5263919433594 79.11490009155273 258.3818919433594 Q 79.11490009155273 255.1583919433594 77.22685009155273 253.13219194335937 Q 75.33880009155274 251.10599194335938 72.52975009155273 250.0007919433594 Q 69.72070009155274 248.89559194335936 64.74730009155273 247.60619194335936 Q 58.48450009155273 245.94839194335938 54.57025009155274 244.24454194335937 Q 50.656000091552734 242.54069194335938 47.893000091552736 238.94879194335937 Q 45.13000009155273 235.35689194335936 45.13000009155273 229.37039194335938 Q 45.13000009155273 223.84439194335937 47.893000091552736 219.69989194335938 Q 50.656000091552734 215.55539194335938 55.62940009155274 213.3449919433594 Q 60.60280009155274 211.13459194335937 67.14190009155274 211.13459194335937 Q 76.44400009155274 211.13459194335937 82.38445009155274 215.78564194335937 Q 88.32490009155273 220.43669194335936 88.96960009155273 228.54149194335938 L 77.36500009155273 228.54149194335938 Q 77.08870009155274 225.04169194335938 74.04940009155274 222.55499194335937 Q 71.01010009155274 220.06829194335938 66.03670009155273 220.06829194335938 Q 61.52380009155273 220.06829194335938 58.668700091552736 222.37079194335936 Q 55.813600091552736 224.67329194335937 55.813600091552736 229.00199194335937 Q 55.813600091552736 231.94919194335938 57.609550091552734 233.83724194335937 Q 59.40550009155274 235.72529194335937 62.16850009155273 236.8304919433594 Q 64.93150009155273 237.93569194335936 69.72070009155274 239.22509194335936 Q 76.07560009155273 240.97499194335938 80.08195009155273 242.72489194335938 Q 84.08830009155272 244.47479194335938 86.89735009155274 248.11274194335937 Q 89.70640009155274 251.75069194335939 89.70640009155274 257.82929194335935 Q 89.70640009155274 262.71059194335936 87.08155009155274 267.0392919433594 Q 84.45670009155273 271.36799194335936 79.43725009155273 273.9928419433594 Q 74.41780009155273 276.6176919433594 67.60240009155274 276.6176919433594 Z M 128.37551293945313 224.39699194335938 Q 134.17781293945313 224.39699194335938 138.73676293945311 226.88369194335937 Q 143.29571293945313 229.37039194335938 145.92056293945313 234.2516919433594 Q 148.54541293945312 239.13299194335937 148.54541293945312 246.04049194335937 L 148.54541293945312 275.9729919433594 L 138.13811293945312 275.9729919433594 L 138.13811293945312 247.60619194335936 Q 138.13811293945312 240.79079194335938 134.73041293945312 237.15284194335936 Q 131.32271293945314 233.51489194335937 125.42831293945312 233.51489194335937 Q 119.53391293945313 233.51489194335937 116.08016293945312 237.15284194335936 Q 112.62641293945313 240.79079194335938 112.62641293945313 247.60619194335936 L 112.62641293945313 275.9729919433594 L 102.12701293945312 275.9729919433594 L 102.12701293945312 207.81899194335938 L 112.62641293945313 207.81899194335938 L 112.62641293945313 231.12029194335938 Q 115.29731293945312 227.89679194335937 119.39576293945312 226.14689194335938 Q 123.49421293945312 224.39699194335938 128.37551293945313 224.39699194335938 Z M 158.39942973632813 250.36919194335937 Q 158.39942973632813 242.72489194335938 161.57687973632812 236.8304919433594 Q 164.75432973632812 230.93609194335937 170.23427973632812 227.6665419433594 Q 175.71422973632812 224.39699194335938 182.34542973632813 224.39699194335938 Q 188.33192973632814 224.39699194335938 192.79877973632813 226.74554194335937 Q 197.26562973632812 229.0940919433594 199.9365297363281 232.59389194335938 L 199.9365297363281 225.2258919433594 L 210.52802973632814 225.2258919433594 L 210.52802973632814 275.9729919433594 L 199.9365297363281 275.9729919433594 L 199.9365297363281 268.42079194335935 Q 197.26562973632812 272.01269194335936 192.66062973632813 274.4072919433594 Q 188.05562973632811 276.80189194335935 182.16122973632812 276.80189194335935 Q 175.62212973632813 276.80189194335935 170.18822973632814 273.44024194335935 Q 164.75432973632812 270.07859194335936 161.57687973632812 264.0460419433594 Q 158.39942973632813 258.0134919433594 158.39942973632813 250.36919194335937 Z M 199.9365297363281 250.55339194335937 Q 199.9365297363281 245.30369194335938 197.77217973632813 241.43549194335938 Q 195.60782973632814 237.56729194335938 192.10802973632812 235.5410919433594 Q 188.60822973632813 233.51489194335937 184.55582973632812 233.51489194335937 Q 180.50342973632812 233.51489194335937 177.00362973632812 235.49504194335938 Q 173.50382973632813 237.4751919433594 171.33947973632812 241.29734194335938 Q 169.17512973632813 245.11949194335938 169.17512973632813 250.36919194335937 Q 169.17512973632813 255.6188919433594 171.33947973632812 259.5791919433594 Q 173.50382973632813 263.5394919433594 177.04967973632813 265.6117419433594 Q 180.59552973632813 267.6839919433594 184.55582973632812 267.6839919433594 Q 188.60822973632813 267.6839919433594 192.10802973632812 265.65779194335937 Q 195.60782973632814 263.63159194335935 197.77217973632813 259.7173419433594 Q 199.9365297363281 255.80309194335936 199.9365297363281 250.55339194335937 Z M 285.7587017089844 224.39699194335938 Q 291.7452017089844 224.39699194335938 296.4883517089844 226.88369194335937 Q 301.2315017089844 229.37039194335938 303.9484517089844 234.2516919433594 Q 306.6654017089844 239.13299194335937 306.6654017089844 246.04049194335937 L 306.6654017089844 275.9729919433594 L 296.2581017089844 275.9729919433594 L 296.2581017089844 247.60619194335936 Q 296.2581017089844 240.79079194335938 292.85040170898435 237.15284194335936 Q 289.4427017089844 233.51489194335937 283.54830170898435 233.51489194335937 Q 277.6539017089844 233.51489194335937 274.2001517089844 237.15284194335936 Q 270.74640170898437 240.79079194335938 270.74640170898437 247.60619194335936 L 270.74640170898437 275.9729919433594 L 260.33910170898434 275.9729919433594 L 260.33910170898434 247.60619194335936 Q 260.33910170898434 240.79079194335938 256.93140170898437 237.15284194335936 Q 253.5237017089844 233.51489194335937 247.62930170898437 233.51489194335937 Q 241.73490170898438 233.51489194335937 238.28115170898437 237.15284194335936 Q 234.82740170898438 240.79079194335938 234.82740170898438 247.60619194335936 L 234.82740170898438 275.9729919433594 L 224.32800170898437 275.9729919433594 L 224.32800170898437 225.2258919433594 L 234.82740170898438 225.2258919433594 L 234.82740170898438 231.0281919433594 Q 237.40620170898438 227.89679194335937 241.36650170898437 226.14689194335938 Q 245.32680170898436 224.39699194335938 249.83970170898436 224.39699194335938 Q 255.91830170898436 224.39699194335938 260.70750170898435 226.97579194335938 Q 265.49670170898435 229.55459194335938 268.07550170898435 234.43589194335937 Q 270.37800170898436 229.83089194335938 275.25930170898437 227.11394194335938 Q 280.1406017089844 224.39699194335938 285.7587017089844 224.39699194335938 Z M 316.5106357910156 250.36919194335937 Q 316.5106357910156 242.72489194335938 319.6880857910156 236.8304919433594 Q 322.86553579101565 230.93609194335937 328.3454857910156 227.6665419433594 Q 333.82543579101565 224.39699194335938 340.45663579101563 224.39699194335938 Q 346.4431357910156 224.39699194335938 350.90998579101563 226.74554194335937 Q 355.37683579101565 229.0940919433594 358.0477357910156 232.59389194335938 L 358.0477357910156 225.2258919433594 L 368.6392357910156 225.2258919433594 L 368.6392357910156 275.9729919433594 L 358.0477357910156 275.9729919433594 L 358.0477357910156 268.42079194335935 Q 355.37683579101565 272.01269194335936 350.77183579101563 274.4072919433594 Q 346.1668357910156 276.80189194335935 340.2724357910156 276.80189194335935 Q 333.73333579101563 276.80189194335935 328.29943579101564 273.44024194335935 Q 322.86553579101565 270.07859194335936 319.6880857910156 264.0460419433594 Q 316.5106357910156 258.0134919433594 316.5106357910156 250.36919194335937 Z M 358.0477357910156 250.55339194335937 Q 358.0477357910156 245.30369194335938 355.8833857910156 241.43549194335938 Q 353.71903579101564 237.56729194335938 350.21923579101565 235.5410919433594 Q 346.7194357910156 233.51489194335937 342.6670357910156 233.51489194335937 Q 338.61463579101564 233.51489194335937 335.11483579101565 235.49504194335938 Q 331.6150357910156 237.4751919433594 329.45068579101564 241.29734194335938 Q 327.28633579101563 245.11949194335938 327.28633579101563 250.36919194335937 Q 327.28633579101563 255.6188919433594 329.45068579101564 259.5791919433594 Q 331.6150357910156 263.5394919433594 335.16088579101563 265.6117419433594 Q 338.7067357910156 267.6839919433594 342.6670357910156 267.6839919433594 Q 346.7194357910156 267.6839919433594 350.21923579101565 265.65779194335937 Q 353.71903579101564 263.63159194335935 355.8833857910156 259.7173419433594 Q 358.0477357910156 255.80309194335936 358.0477357910156 250.55339194335937 Z M 392.9542327636719 207.81899194335938 L 392.9542327636719 275.9729919433594 L 382.4548327636719 275.9729919433594 L 382.4548327636719 207.81899194335938 Z" transform="matrix(1, 0, 0, 1, 0, 0)" style="fill: rgb(255, 255, 255); white-space: pre;"/>
</svg>